<?xml version="1.0" encoding="utf-8"?>
<!-- Generator: Adobe Illustrator 21.0.2, SVG Export Plug-In . SVG Version: 6.00 Build 0)  -->
<svg version="1.1" id="Layer_1" xmlns:sketch="http://www.bohemiancoding.com/sketch/ns"
	 xmlns="http://www.w3.org/2000/svg" xmlns:xlink="http://www.w3.org/1999/xlink" x="0px" y="0px" viewBox="0 0 55 39"
	 style="enable-background:new 0 0 55 39;" xml:space="preserve">
<style type="text/css">
	.st0{fill:#2C9DD7;}
	.st1{fill:#FFFFFF;}
	.st2{filter:url(#Adobe_OpacityMaskFilter);}
	.st3{mask:url(#mask-3);fill:#FFFFFF;}
</style>
<title>amex</title>
<description>Created with Sketch.</description>
<g id="Edit-account" sketch:type="MSPage">
	<g id="Slices" transform="translate(-733.000000, -550.000000)" sketch:type="MSLayerGroup">
	</g>
	<g id="Imported-Layers" sketch:type="MSLayerGroup">
		<path id="Fill-1" sketch:type="MSShapeGroup" class="st0" d="M0,39h55V0H0V39z"/>
		<g id="Group-8">
			<path id="Fill-3" sketch:type="MSShapeGroup" class="st1" d="M0,24.4h2.6l0.6-1.4h1.3l0.6,1.4h5.2v-1.1l0.5,1.1h2.7l0.5-1.1v1.1
				h12.9l0-2.4h0.2c0.2,0,0.2,0,0.2,0.3v2.1H34v-0.6c0.5,0.3,1.4,0.6,2.5,0.6h2.8l0.6-1.4h1.3l0.6,1.4h5.4V23l0.8,1.4h4.3v-9h-4.3
				v1.1l-0.6-1.1h-4.4v1.1l-0.6-1.1h-5.9c-1,0-1.9,0.1-2.6,0.5v-0.5h-4.1v0.5c-0.4-0.4-1.1-0.5-1.7-0.5h-15l-1,2.3l-1-2.3H6.4v1.1
				l-0.5-1.1h-4L0,19.6V24.4L0,24.4z M51,23.1h-2.2l-2.9-4.9v4.9h-3.1l-0.6-1.4H39l-0.6,1.4h-1.8c-0.7,0-1.7-0.2-2.2-0.7
				c-0.5-0.6-0.8-1.3-0.8-2.5c0-1,0.2-1.8,0.8-2.5c0.5-0.5,1.3-0.8,2.3-0.8h1.5V18h-1.5c-0.6,0-0.9,0.1-1.2,0.4
				c-0.3,0.3-0.4,0.8-0.4,1.5c0,0.7,0.1,1.2,0.4,1.5c0.2,0.3,0.7,0.3,1.1,0.3h0.7l2.2-5.1h2.3l2.6,6.1v-6.1h2.4l2.7,4.5v-4.5H51
				L51,23.1L51,23.1z M32.7,23.1h-1.6v-6.5h1.6V23.1z M30.3,18.4c0,1-0.7,1.6-1.1,1.7c0.3,0.1,0.6,0.4,0.8,0.5
				c0.2,0.3,0.3,0.6,0.3,1.2v1.3h-1.6l0-0.8c0-0.4,0-1-0.2-1.3c-0.2-0.2-0.6-0.3-1.1-0.3h-1.7v2.4h-1.5v-6.5h3.6
				c0.8,0,1.4,0,1.9,0.3C30,17.2,30.3,17.6,30.3,18.4L30.3,18.4z M23,23.1h-5.2v-6.5H23V18h-3.6v1.2h3.5v1.3h-3.5v1.3H23
				C23,21.8,23,23.1,23,23.1z M16.7,23.1h-1.6l0-5.1l-2.2,5.1h-1.4L9.2,18v5.1H6.1l-0.6-1.4H2.3l-0.6,1.4H0l2.8-6.5h2.3l2.6,6.1
				v-6.1h2.5l2,4.4l1.9-4.4h2.6V23.1L16.7,23.1z M41.6,20.3l-1.1-2.6l-1.1,2.6H41.6z M28.2,19.3c-0.2,0.1-0.5,0.1-0.8,0.1h-1.9V18
				h1.9c0.3,0,0.6,0,0.7,0.1c0.2,0.1,0.3,0.3,0.3,0.6C28.6,18.9,28.4,19.2,28.2,19.3L28.2,19.3z M5,20.3l-1.1-2.6l-1.1,2.6H5z"/>
			<g id="Group-7">
				<g id="Clip-6">
				</g>
				<defs>
					<filter id="Adobe_OpacityMaskFilter" filterUnits="userSpaceOnUse" x="11" y="26.5" width="44" height="9.1">
						<feColorMatrix  type="matrix" values="1 0 0 0 0  0 1 0 0 0  0 0 1 0 0  0 0 0 1 0"/>
					</filter>
				</defs>
				<mask maskUnits="userSpaceOnUse" x="11" y="26.5" width="44" height="9.1" id="mask-3">
					<g class="st2">
						<path id="path-2" class="st1" d="M0,0.3h55V39H0V0.3z"/>
					</g>
				</mask>
				<path id="Fill-5" sketch:type="MSShapeGroup" class="st3" d="M30,29.9c0,1.8-1.3,2.2-2.7,2.2h-1.9v2.2h-3l-1.9-2.1l-2,2.1h-6.1
					v-6.5h6.2l1.9,2.1l2-2.1h4.9C28.6,27.8,30,28.1,30,29.9L30,29.9z M17.7,32.9h-3.8v-1.3h3.4v-1.3h-3.4v-1.2h3.9l1.7,1.9
					L17.7,32.9z M23.8,33.7L21.5,31l2.4-2.6V33.7z M27.4,30.8h-2v-1.7h2c0.6,0,0.9,0.2,0.9,0.8C28.3,30.5,28,30.8,27.4,30.8
					L27.4,30.8z M37.8,27.8h5.2v1.3h-3.6v1.2h3.5v1.3h-3.5v1.3l3.6,0v1.3h-5.2L37.8,27.8L37.8,27.8z M35.8,31.3
					c0.3,0.1,0.6,0.4,0.8,0.5c0.2,0.3,0.2,0.6,0.3,1.2v1.3h-1.6v-0.8c0-0.4,0-1-0.2-1.3c-0.2-0.2-0.6-0.3-1.1-0.3h-1.7v2.4h-1.6
					v-6.5h3.6c0.8,0,1.4,0,1.9,0.3c0.5,0.3,0.8,0.7,0.8,1.4C36.9,30.6,36.2,31.1,35.8,31.3L35.8,31.3z M34.9,30.4
					c-0.2,0.1-0.5,0.1-0.8,0.1h-1.9v-1.5h1.9c0.3,0,0.6,0,0.7,0.1c0.2,0.1,0.3,0.3,0.3,0.6C35.2,30.1,35.1,30.3,34.9,30.4L34.9,30.4
					z M48.8,30.8c0.3,0.3,0.5,0.7,0.5,1.4c0,1.4-0.9,2-2.4,2h-3v-1.4h3c0.3,0,0.5,0,0.6-0.2c0.1-0.1,0.2-0.2,0.2-0.4
					c0-0.2-0.1-0.3-0.2-0.4c-0.1-0.1-0.3-0.1-0.6-0.1c-1.4,0-3.3,0-3.3-2c0-0.9,0.6-1.9,2.2-1.9H49v1.4h-2.8c-0.3,0-0.5,0-0.6,0.1
					c-0.2,0.1-0.2,0.3-0.2,0.5c0,0.2,0.1,0.4,0.3,0.5c0.2,0.1,0.3,0.1,0.6,0.1l0.8,0C47.9,30.3,48.5,30.5,48.8,30.8L48.8,30.8z
					 M55,33.4c-0.4,0.6-1.1,0.8-2.1,0.8h-3v-1.4h3c0.3,0,0.5,0,0.6-0.2c0.1-0.1,0.2-0.2,0.2-0.4c0-0.2-0.1-0.3-0.2-0.4
					c-0.1-0.1-0.3-0.1-0.5-0.1c-1.5,0-3.3,0-3.3-2c0-0.9,0.6-1.9,2.2-1.9H55v-1.3h-2.9c-0.9,0-1.5,0.2-1.9,0.5v-0.5H46
					c-0.7,0-1.5,0.2-1.8,0.5v-0.5h-7.6V27c-0.6-0.4-1.6-0.5-2.1-0.5h-5V27c-0.5-0.5-1.5-0.5-2.2-0.5h-5.6l-1.3,1.4l-1.2-1.4H11v9.1
					h8.2l1.3-1.4l1.2,1.4l5,0v-2.1h0.5c0.7,0,1.5,0,2.2-0.3v2.4h4.2v-2.4h0.2c0.3,0,0.3,0,0.3,0.3v2.1h12.6c0.8,0,1.6-0.2,2.1-0.6
					v0.6h4c0.8,0,1.6-0.1,2.3-0.4V33.4z M55,29.2h-2.8c-0.3,0-0.5,0-0.6,0.1c-0.2,0.1-0.2,0.3-0.2,0.5c0,0.2,0.1,0.4,0.3,0.5
					c0.2,0.1,0.3,0.1,0.6,0.1l0.8,0c0.8,0,1.4,0.2,1.8,0.5c0.1,0,0.1,0.1,0.1,0.2V29.2z"/>
			</g>
		</g>
	</g>
</g>
</svg>
