<?xml version="1.0" encoding="utf-8"?>
<!-- Generator: Adobe Illustrator 21.0.2, SVG Export Plug-In . SVG Version: 6.00 Build 0)  -->
<svg version="1.1" id="Layer_1" xmlns:sketch="http://www.bohemiancoding.com/sketch/ns"
	 xmlns="http://www.w3.org/2000/svg" xmlns:xlink="http://www.w3.org/1999/xlink" x="0px" y="0px" viewBox="0 0 55 39"
	 style="enable-background:new 0 0 55 39;" xml:space="preserve">
<style type="text/css">
	.st0{fill:#FFFFFF;}
	.st1{fill:#F16822;}
	.st2{fill:none;stroke:#000000;stroke-width:0.1465;stroke-linecap:round;stroke-miterlimit:3.8637;}
</style>
<title>amex</title>
<description>Created with Sketch.</description>
<polygon class="st0" points="44.8,0 0,0 0,38.5 24.8,38.5 55,38.5 55,0 "/>
<g>
	<path d="M6.4,19.9c0,0,3.2,0.4,3.2-2.4v0c0-2.8-3.2-2.4-3.2-2.4S6.4,19.9,6.4,19.9z M4.9,13.7h2.5c1.5,0,3.6,1.3,3.6,3.7l0,0l0,0
		c0,2.4-2.2,3.7-3.6,3.7H4.9V13.7z"/>
	<rect x="11.7" y="13.7" width="1.5" height="7.5"/>
	<path d="M17.8,15.4c0,0-0.5-0.6-1.2-0.6s-1,0.4-1,0.8c0,0.3,0,0.5,0.9,0.9c1,0.4,2.3,0.7,2.3,2.4s-1.3,2.5-2.5,2.5
		c-1.9,0-2.7-1.4-2.7-1.4l0.9-0.9c0,0,0.6,1,1.6,1s1.1-0.8,1.1-1c0-0.4-0.2-0.8-0.9-1s-2.4-0.5-2.4-2.2c0-1.5,1.1-2.3,2.4-2.3
		c1.1,0,2.1,0.9,2.1,0.9L17.8,15.4z"/>
	<path d="M23.3,21.4c0.7,0,1.3-0.2,1.8-0.4v-1.8C24.7,19.7,24,20,23.3,20c-1.4,0-2.6-1.1-2.6-2.6c0-1.4,1.1-2.6,2.6-2.6
		c0.7,0,1.4,0.4,1.8,0.8v-1.8c-0.5-0.3-1.2-0.4-1.8-0.4c-2.2,0-4,1.8-4,4C19.3,19.6,21.1,21.4,23.3,21.4z"/>
	<polygon points="39,13.7 37,18.6 36.3,16.9 35,13.7 33.3,13.7 35.4,18.7 36.5,21.4 37.4,21.4 40.6,13.7 	"/>
	<path d="M49.5,18.1c0,0,1.6-0.4,1.6-2.2s-1.6-2.2-2.3-2.2h-2.5v7.5h1.5v-3h0.2l2,3h1.8L49.5,18.1z M48.6,17.1h-0.8v-2.2h0.8
		c0.6,0,1,0.6,1,1.1v0.1C49.6,16.6,49.2,17.1,48.6,17.1z"/>
	<polygon points="41.2,21.2 45.3,21.2 45.3,19.9 42.7,19.9 42.7,18 45.2,18 45.2,16.6 42.7,16.6 42.7,15 45.3,15 45.3,13.7 
		41.2,13.7 	"/>
	<path class="st1" d="M38.7,32.2c-3.7,1.5-8.2,2.8-12.3,3.9C19.3,37.9,13.1,39,13.1,39h11.7H55V23.9C55,23.9,48.7,28.4,38.7,32.2z"
		/>
	<path d="M20.2,23.2h-0.4V25c-0.1-0.1-0.1-0.1-0.1-0.2c0,0-0.1-0.1-0.1-0.1l-1.6-1.6v2.7h0.4V24c0.1,0.1,0.2,0.2,0.2,0.3l1.7,1.6
		C20.2,25.9,20.2,23.2,20.2,23.2z"/>
	<polygon points="22.9,25.4 21.9,25.4 21.9,24.6 22.9,24.6 22.9,24.2 21.9,24.2 21.9,23.6 22.9,23.6 22.9,23.2 21.5,23.2 21.5,25.8 
		22.9,25.8 	"/>
	<polygon points="24.4,25.8 24.9,25.8 24.9,23.6 25.4,23.6 25.4,23.2 23.9,23.2 23.9,23.6 24.4,23.6 	"/>
	<path d="M27.9,24.5c0-0.1,0.1-0.2,0.1-0.4c0,0.1,0.1,0.2,0.1,0.4l0.6,1.5l1-2.7h-0.4l-0.5,1.3c0,0.1,0,0.1-0.1,0.2s0,0.1-0.1,0.2
		c0-0.1-0.1-0.3-0.1-0.4L28,23.1l-0.5,1.4l-0.1,0.2c0,0.1-0.1,0.2-0.1,0.3c0-0.1,0-0.1-0.1-0.2c0-0.1,0-0.1-0.1-0.2l-0.5-1.3h-0.4
		l1,2.7L27.9,24.5z"/>
	<path d="M32.8,23.6C32.8,23.6,32.8,23.6,32.8,23.6c-0.3-0.3-0.6-0.4-1-0.4c-0.4,0-0.7,0.1-1,0.4s-0.4,0.6-0.4,1
		c0,0.2,0,0.4,0.1,0.5c0.1,0.2,0.2,0.3,0.3,0.4s0.3,0.2,0.5,0.3c0.1,0,0.2,0.1,0.3,0.1c0.1,0,0.1,0,0.2,0c0.4,0,0.7-0.1,1-0.4
		c0.3-0.3,0.4-0.6,0.4-1C33.2,24.2,33.1,23.8,32.8,23.6z M32.5,25.2c-0.2,0.2-0.4,0.3-0.7,0.3c0,0,0,0,0,0c-0.3,0-0.5-0.1-0.7-0.3
		c-0.2-0.2-0.3-0.4-0.3-0.7c0-0.1,0-0.3,0.1-0.4c0-0.1,0.1-0.2,0.3-0.4s0.3-0.2,0.6-0.2c0.3,0,0.5,0.1,0.7,0.3c0,0,0.1,0.1,0.1,0.1
		c0.1,0.2,0.2,0.3,0.2,0.5C32.8,24.8,32.7,25,32.5,25.2z"/>
	<path d="M35.7,23.9c0-0.1,0-0.2-0.1-0.3c0-0.1-0.1-0.2-0.2-0.2c-0.1-0.1-0.2-0.1-0.3-0.1c-0.1,0-0.2,0-0.4,0h-0.6v2.6h0.4v-1.2l0,0
		l0.9,1.2l0.5,0l-0.9-1.2C35.5,24.6,35.7,24.4,35.7,23.9z M34.6,24.3v-0.7h0.1c0.2,0,0.3,0,0.4,0.1c0.1,0.1,0.1,0.2,0.1,0.3
		s0,0.2-0.1,0.3C35.1,24.3,34.9,24.3,34.6,24.3C34.7,24.3,34.6,24.3,34.6,24.3z"/>
	<polygon points="38.8,23.2 38.2,23.2 37.3,24.3 37.3,23.2 36.9,23.2 36.9,25.8 37.3,25.8 37.3,24.5 38.3,25.8 38.9,25.8 37.7,24.4 
			"/>
	<path d="M51.7,14.7v-0.6h0.2c0.1,0,0.1,0,0.1,0c0,0,0,0,0.1,0.1c0,0,0,0.1,0,0.1c0,0,0,0.1,0,0.1c0,0-0.1,0.1-0.1,0.1
		c0,0,0,0,0.1,0.1c0,0,0,0.1,0.1,0.1l0.1,0.1h-0.1L52,14.6c0,0,0-0.1-0.1-0.1c0,0,0,0,0,0c0,0,0,0-0.1,0h0v0.3L51.7,14.7L51.7,14.7z
		 M51.8,14.3L51.8,14.3c0.1,0,0.2,0,0.2,0c0,0,0,0,0,0c0,0,0,0,0,0c0,0,0,0,0-0.1c0,0,0,0,0,0c0,0,0,0-0.1,0h-0.1V14.3z"/>
	<circle class="st2" cx="51.9" cy="14.4" r="0.5"/>
	<circle class="st1" cx="29.7" cy="17.5" r="3.9"/>
</g>
</svg>
