<?xml version="1.0" encoding="UTF-8"?>
<svg width="451px" height="131px" viewBox="0 0 451 131" version="1.1" xmlns="http://www.w3.org/2000/svg" xmlns:xlink="http://www.w3.org/1999/xlink">
    <!-- Generator: Sketch 43.2 (39069) - http://www.bohemiancoding.com/sketch -->
    <title>logo-horiz</title>
    <desc>Created with Sketch.</desc>
    <defs>
        <polygon id="path-1" points="265.036251 0.583791045 265.036251 90 0.391025705 90 0.391025705 0.583791045 265.036251 0.583791045"></polygon>
    </defs>
    <g id="Page-1" stroke="none" stroke-width="1" fill="none" fill-rule="evenodd">
        <g id="Desktop-HD" transform="translate(-161.000000, -86.000000)">
            <g id="logo-horiz" transform="translate(161.000000, 86.000000)">
                <path d="M25.5870446,81.4515388 C25.1274692,81.6168175 24.8876908,82.1247473 25.0515394,82.588334 L46.1027559,117.923048 C46.2652724,118.385291 46.7701393,118.628506 47.2297147,118.463227 L80.8399941,106.121071 C81.2982373,105.957136 82.0282295,105.99476 82.4691555,106.205726 L103.444442,121.916612 C103.884036,122.127578 104.110493,121.924675 103.946645,121.461088 L85.1346927,60.5928241 C84.9721762,60.1292374 84.4673093,59.8873661 84.0077339,60.0513011 L25.5870446,81.4515388 Z" id="Fill-1" fill="#2B3E4F"></path>
                <path d="M38.6744824,34.3514492 C38.3788066,33.9602982 37.8222404,33.883681 37.4329117,34.1820849 L10.3498119,65.1703857 C9.96048315,65.4674454 9.88422288,66.0252724 10.1812366,66.4164234 L32.1548981,94.9691035 C32.4519118,95.3602545 32.6378798,96.0740043 32.5709849,96.5605908 L24.0779988,121.504197 C24.0124417,121.990784 24.2733321,122.146706 24.6639988,121.848302 L76.65076,85.2454387 C77.0400888,84.948379 77.1150112,84.3892078 76.8193354,83.9980568 L38.6744824,34.3514492 Z" id="Fill-3" fill="#27B899"></path>
                <g id="Group-7" transform="translate(0.000000, 16.000000)" fill="#3B96D2">
                    <path d="M86.5898667,17.83075 C86.8685333,17.4269038 86.7698667,16.8709423 86.3698667,16.5895962 L48.8338667,0.174596154 C48.4338667,-0.10675 47.8832,-0.00713461538 47.6045333,0.396711538 L27.9298667,29.38075 C27.6512,29.7845962 27.0338667,30.1830577 26.5552,30.2692115 L0.408533333,29.7994038 C-0.0728,29.8869038 -0.138133333,30.1844038 0.261866667,30.4670962 L50.7152,69.0047885 C51.1152,69.2861346 51.6658667,69.1851731 51.9445333,68.7826731 L86.5898667,17.83075 Z" id="Fill-5"></path>
                </g>
                <path d="M102.514379,78.9645826 C102.982636,79.1015806 103.473572,78.8289277 103.608313,78.3574933 L106.964821,37.2889774 C107.100896,36.8175431 106.830081,36.3246188 106.361824,36.1876208 L72.9128043,26.4258399 C72.4432133,26.2888419 71.8708993,25.8281525 71.6361038,25.3983547 L63.6837405,0.302196879 C63.447611,-0.127600847 63.1461122,-0.0953660179 63.0113716,0.376068363 L43.0350777,60.8499515 C42.8990031,61.3213859 43.1711524,61.8143102 43.6380752,61.9513082 L103.546946,78.9645826 L102.514379,78.9645826 Z" id="Fill-8" fill="#F19C1F"></path>
                <path d="M65.773221,108.148901 C65.7920089,108.636202 66.2040007,109.018033 66.6951701,108.999342 L106.714741,99.3761437 C107.204568,99.3587878 107.587036,98.9475856 107.56959,98.4602844 L105.944437,62.6483155 C105.925649,62.1610143 106.18197,61.4747873 106.516126,61.115653 L127.812211,45.7302843 C128.14771,45.3724851 128.021562,45.0947901 127.530393,45.1148162 L63.8541711,45 C63.3643437,45.018691 62.9818757,45.4285581 63.0006636,45.9171944 L65.773221,108.148901 Z" id="Fill-10" fill="#E54C3B"></path>
                <path d="M188.317649,67.5396581 C189.227246,67.6000704 190.045345,67.6457152 190.771947,67.6752501 C191.498548,67.70747 192.164599,67.6148378 192.772791,67.4027235 C193.376947,67.1919517 193.93939,66.813368 194.453393,66.2683147 C194.967396,65.724604 195.498892,64.9097092 196.043843,63.8196028 C196.346593,63.2758921 196.043843,62.8838833 195.135591,62.6408916 C194.347094,62.5214095 193.271993,62.368365 191.908943,62.1871281 C190.544547,62.0058912 189.045596,61.8568742 187.408051,61.7347071 C188.499299,59.1947054 189.589201,56.744651 190.681794,54.3872287 C191.771696,52.0284639 192.801048,49.8683885 193.772541,47.9029749 C194.739997,45.9375614 195.575589,44.2151395 196.271242,42.7316819 C196.968241,41.2509092 197.498391,40.0869656 197.863037,39.2398508 C198.590984,37.4261393 198.96774,35.6567301 198.998688,33.9343082 C199.029636,32.2105439 198.512942,30.7002363 197.453988,29.3993581 C196.392342,28.0998223 194.710395,27.0405933 192.408145,26.2256985 C190.10455,25.4094612 187.012457,25 183.135905,25 C177.983763,25 173.364462,25.3638163 169.272621,26.0887639 C165.182124,26.8150541 161.666181,27.8434057 158.727482,29.1724763 C155.786093,30.5028895 153.499989,32.0910618 151.863791,33.9343082 C150.227592,35.7788972 149.287047,37.7886131 149.044847,39.966141 C148.864542,41.8402648 149.227843,43.3989022 150.136094,44.6366831 C151.045692,45.8771491 152.120793,46.8598559 153.362743,47.5848035 C154.604693,48.3110936 155.847988,48.8548043 157.091284,49.2172781 C158.331888,49.5810944 159.166134,49.7918662 159.589985,49.8522785 C160.377137,49.9744456 161.257131,49.9140333 162.227279,49.6696991 C163.194735,49.4293924 164.105678,48.7044448 164.954725,47.4948563 L169.408522,41.5073259 C168.681921,41.6899053 168.045472,41.8254974 167.499175,41.9154446 C166.954224,42.0067343 166.499425,42.0832565 166.136125,42.1423263 C165.710928,42.2040811 165.347628,42.233616 165.044877,42.233616 C163.408679,42.3557831 162.18153,42.1745462 161.364776,41.6899053 C160.545331,41.2066069 159.984234,40.6910886 159.681483,40.1473779 C159.318182,39.4828425 159.166134,38.72836 159.226684,37.8799028 C159.34913,36.3695952 160.331388,35.0995944 162.18153,34.0712428 C164.030327,33.0428911 166.226277,32.2427638 168.773419,31.6668332 C171.317869,31.0935875 173.968618,30.7002363 176.727012,30.488122 C179.485406,30.2773502 181.863007,30.2317054 183.862506,30.3511875 C185.014304,30.4129423 186.058457,30.5780692 187.000347,30.8505958 C187.938201,31.1231224 188.756301,31.5017062 189.454645,31.9836621 C190.148953,32.468303 190.649501,33.1046459 190.953597,33.8900059 C191.256347,34.6767083 191.347845,35.6124277 191.2254,36.7011917 C191.104299,37.7295433 190.681794,39.1042588 189.953847,40.8280231 C189.227246,42.550445 188.345905,44.5010911 187.317899,46.6772765 C186.285856,48.8548043 185.135404,51.1988016 183.862506,53.7065834 C182.589608,56.2170502 181.318056,58.7409419 180.045158,61.2809436 C179.741062,61.2809436 179.485406,61.2661761 179.272808,61.2352987 C179.058864,61.2044213 178.801862,61.2218738 178.499112,61.2809436 C176.439063,61.2809436 174.226965,61.3413559 171.86282,61.4621805 C169.863321,61.5830051 167.559725,61.7347071 164.954725,61.915944 C162.347033,62.0971809 159.620933,62.368365 156.773732,62.7321813 C155.985235,63.8196028 155.409336,64.7271298 155.046036,65.4520774 C154.80249,65.876306 154.620839,66.3005346 154.499739,66.7234208 C154.377293,67.1463069 154.287141,67.5705355 154.226591,67.9920791 C154.166041,68.4163077 154.149894,68.8700712 154.182187,69.3520271 C154.210444,69.8366681 154.318089,70.3199665 154.499739,70.8046074 C155.893737,70.3199665 157.394034,69.8823129 159.000631,69.4889617 C160.604536,69.0956105 162.106179,68.7492466 163.500177,68.4458426 C165.13503,68.1451236 166.802176,67.8712545 168.498925,67.6296053 C171.589671,67.265789 174.469166,67.0858946 177.134716,67.0858946 C175.922368,69.6258962 174.771916,71.9994285 173.680669,74.2051487 C172.590767,76.4122115 171.620619,78.4219274 170.772918,80.2369815 C169.31837,83.3824487 168.120823,86.2392793 167.181623,88.8074734 C166.241078,91.3783525 165.483529,93.7048973 164.908976,95.792478 C164.333077,97.8787161 163.907881,99.7514975 163.636078,101.41485 C163.36293,103.078202 163.166478,104.573742 163.045378,105.905497 C162.741282,107.840034 162.939079,109.064389 163.636078,109.578565 C164.333077,110.091399 165.529278,110.135701 167.226027,109.714157 C167.711773,109.593333 168.31862,109.441631 169.045221,109.260394 C169.712618,109.138227 170.514571,108.95699 171.45377,108.716683 C172.39297,108.473691 173.499018,108.172972 174.771916,107.810499 C174.28617,106.901629 174.045315,105.692041 174.045315,104.181733 C174.045315,102.670083 174.104519,101.217503 174.226965,99.8280198 C174.408615,98.1955451 174.680418,96.4409034 175.045064,94.568122 C175.285919,93.2363664 175.740718,91.5743568 176.408115,89.5794083 C177.075511,87.5831174 177.847862,85.3935071 178.726511,83.0038649 C179.603815,80.6155652 180.575308,78.0916735 181.635608,75.4295047 C182.694562,72.7700209 183.803302,70.0783173 184.953754,67.3584212 C185.557909,67.4188335 186.135154,67.4631358 186.68145,67.4926707 C187.226401,67.5248906 187.771352,67.5396581 188.317649,67.5396581" id="Fill-12" fill="#E54C3B"></path>
                <g id="Group-16" transform="translate(185.000000, 41.000000)">
                    <mask id="mask-2" fill="white">
                        <use xlink:href="#path-1"></use>
                    </mask>
                    <g id="Clip-15"></g>
                    <path d="M58.362405,34.7864776 C58.2728472,35.4218507 58.2474503,36.1257313 58.1111085,37.1600597 C58.0683347,37.270209 58.0643246,37.3857313 58.0643246,37.3857313 C58.0643246,37.3857313 58.0803648,37.4609552 58.0001638,38.042597 C57.8624854,39.0433433 57.6232191,40.2979701 57.323802,41.8091642 C57.0203749,43.3217015 56.6594704,44.8946866 56.2384151,46.5281194 C55.8173598,48.1628955 55.4551186,49.5840896 55.1557015,50.7943881 C55.0955508,51.0966269 54.8402442,51.580209 54.3871085,52.2464776 C53.9353095,52.911403 53.3645457,53.6381194 52.6721437,54.4239403 C51.9797417,55.2111045 51.1964452,55.9660299 50.323591,56.6927463 C49.4507367,57.4181194 48.5778824,58.0078209 47.7050281,58.4618507 C46.8321739,58.9158806 45.9740231,59.1590149 45.1319126,59.1885672 C44.2884653,59.2181194 43.5345759,58.9024478 42.8729176,58.2348358 C42.5133497,57.8734925 42.2714101,57.1011045 42.1511085,55.9203582 C42.0294704,54.7409552 42.0749176,53.3667761 42.2874503,51.7924478 C42.4973095,50.2194627 42.8729176,48.5403582 43.4156111,46.7551343 C43.9583045,44.9712537 44.6801136,43.2921493 45.5823749,41.7178209 C47.7504754,37.9055821 49.660596,35.290209 51.3167467,33.8676716 C52.9728975,32.4478209 57.3839528,31.7452836 58.0469477,32.2906567 C58.2260633,32.5324478 58.3477015,32.8669254 58.4078523,33.2887164 C58.4666663,33.6527463 58.4519628,34.1511045 58.362405,34.7864776 M10.452998,41.2194627 C11.2964452,39.2542388 12.1987065,37.5885672 13.1624553,36.2278209 C14.1248673,34.8657313 15.1046563,33.822 16.0978121,33.0966269 C17.0896312,32.3712537 17.9491186,32.0072239 18.6709276,32.0072239 C19.3325859,32.0072239 19.8458724,32.2664776 20.2067769,32.7782687 C20.5690181,33.2940896 20.6866462,34.1255821 20.5690181,35.2740896 C20.4473799,36.3634925 19.8752794,37.6651343 18.8513799,39.1776716 C17.8274804,40.690209 16.0216211,42.4445373 13.433802,44.4406567 C12.5903548,45.1069254 11.7469075,45.7275224 10.904797,46.3011045 C10.0600131,46.8773731 9.27938995,47.4361791 8.55624422,47.980209 C8.9772995,45.4387164 9.60821407,43.1846866 10.452998,41.2194627 M192.156395,41.2194627 C192.998506,39.2542388 193.900767,37.5885672 194.865852,36.2278209 C195.826928,34.8657313 196.806717,33.822 197.799872,33.0966269 C198.794365,32.3712537 199.651179,32.0072239 200.374325,32.0072239 C201.034646,32.0072239 201.547933,32.2664776 201.910174,32.7782687 C202.269742,33.2940896 202.390043,34.1255821 202.269742,35.2740896 C202.14944,36.3634925 201.578676,37.6651343 200.554777,39.1776716 C199.529541,40.690209 197.725018,42.4445373 195.135862,44.4406567 C194.292415,45.1069254 193.451641,45.7275224 192.608194,46.3011045 C191.76341,46.8773731 190.982787,47.4361791 190.259641,47.980209 C190.67936,45.4387164 191.312948,43.1846866 192.156395,41.2194627 M264.704887,30.7364776 C264.313239,29.8297612 263.30538,29.3166269 261.679973,29.1930448 C261.015641,29.1339403 260.353983,29.1930448 259.693661,29.3757313 C259.090817,29.4966269 258.413119,29.7236418 257.661903,30.0567761 C256.908013,30.3899104 256.13942,30.8587164 255.358797,31.463194 C256.321209,32.4921493 256.742264,33.6406567 256.623299,34.9127463 C256.500325,36.1821493 256.230315,37.9378209 255.810596,40.1743881 C255.507169,41.3255821 255.04334,42.6258806 254.411088,44.0779701 C253.777501,45.5300597 253.055691,47.0130448 252.242988,48.5255821 C251.430284,50.0381194 250.54139,51.5345373 249.578978,53.0175224 C248.615229,54.5005075 247.636777,55.8169254 246.642284,56.9640896 C245.649129,58.1152836 244.670676,59.0381194 243.708264,59.732597 C242.744516,60.4284179 241.871661,60.7763284 241.089702,60.7763284 C239.464294,60.7763284 238.410988,60.0361791 237.928445,58.553194 C237.447239,57.0715522 237.477983,54.9679701 238.01934,52.2464776 C238.078154,51.6406567 238.349501,50.6278209 238.83338,49.2052836 C239.313249,47.7840896 239.854606,46.2258806 240.458787,44.532 C241.060294,42.8394627 241.631058,41.1899104 242.173752,39.5860299 C242.715109,37.9834925 243.106757,36.6670746 243.34736,35.6381194 C243.828566,33.7024478 243.934164,32.2503582 243.664154,31.2818507 C243.392807,30.3146866 242.445098,29.7088657 240.819691,29.4670746 C240.15536,29.4079701 239.493702,29.4079701 238.83338,29.4670746 C238.230536,29.5879701 237.552837,29.7545373 236.800284,29.9654328 C236.047732,30.1776716 235.249732,30.5551343 234.407621,31.1005075 C235.249732,32.1885672 235.503702,33.5506567 235.174877,35.1840896 C234.84338,36.8175224 234.316727,38.7854328 233.594918,41.0824478 C233.414465,41.5673731 233.156485,42.3693134 232.827661,43.4882687 C232.494827,44.6085672 232.149963,45.863194 231.787722,47.2534925 C231.746284,47.4146866 231.710194,47.5852836 231.66742,47.7478209 C230.999078,48.9957313 230.290636,50.2369254 229.53541,51.471403 C228.057038,53.8839403 226.454355,56.0493134 224.72736,57.9688657 C224.572305,58.1421493 224.414576,58.302 224.255511,58.4645373 C226.216425,50.7218507 227.905993,44.072597 229.317531,38.5409552 C231.154134,31.3422985 232.612455,25.6548358 233.697842,21.4799104 C234.961008,16.5796119 235.954164,12.8291642 236.675973,10.2272239 C236.978063,8.89737313 237.248073,7.65483582 237.490013,6.50632836 C237.610315,5.53916418 237.683832,4.60020896 237.717249,3.69349254 C237.74532,2.78408955 237.580908,2.18229851 237.220003,1.87737313 C237.098365,1.57513433 236.827018,1.37767164 236.405963,1.28767164 C235.984908,1.19767164 235.533109,1.15065672 235.051903,1.15065672 C234.510546,1.15065672 233.907702,1.21244776 233.244707,1.33334328 C232.583048,1.45558209 231.92139,1.60602985 231.259732,1.78602985 C230.717038,1.90826866 230.159641,2.05871642 229.588877,2.2400597 C229.01544,2.42274627 228.488787,2.66453731 228.008918,2.96677612 C228.188033,3.81438806 228.278928,4.752 228.278928,5.77961194 C228.278928,6.80856716 228.21744,7.80797015 228.097139,8.77513433 C227.976837,9.86319403 227.827129,10.9834925 227.648013,12.132 C227.285772,13.7654328 226.62144,16.7018507 225.660365,20.9358806 C224.815581,24.5063284 223.596526,29.6793134 222.003199,36.4548358 C221.372284,39.1266269 220.658495,42.1570746 219.864506,45.5166269 C218.954224,46.5657313 217.930325,47.7115522 216.764737,48.9782687 C214.928134,50.9757313 212.941822,52.8966269 210.804465,54.7409552 C208.665772,56.5866269 206.484305,58.1596119 204.256053,59.4599104 C202.029139,60.7615522 199.891782,61.4117015 197.846656,61.4117015 C196.881571,61.4117015 195.933862,61.2746866 195.000857,61.0033433 C194.066516,60.7306567 193.239109,60.2766269 192.517299,59.6412537 C191.79549,59.0058806 191.192646,58.1757313 190.71144,57.1467761 C190.228897,56.1178209 189.957551,54.8484179 189.8974,53.3345373 C190.802335,52.6696119 191.854305,51.9281194 193.059993,51.1100597 C194.263008,50.2933433 195.526174,49.4322985 196.852164,48.5255821 C198.055179,47.6779701 199.335722,46.7403582 200.691119,45.711403 C202.043842,44.683791 203.321712,43.5339403 204.528737,42.263194 C205.731752,40.9924478 206.770355,39.572597 207.644546,37.9982687 C208.516063,36.4252836 209.044053,34.7005075 209.224506,32.8239403 C209.34347,31.131403 208.891671,29.7088657 207.870445,28.5590149 C206.845209,27.4105075 205.190395,26.8355821 202.90333,26.8355821 C200.494626,26.8355821 198.100626,27.5918507 195.724003,29.1043881 C193.34337,30.6169254 191.208686,32.5217015 189.311933,34.8200597 C187.415179,37.1211045 185.819179,39.6464776 184.525269,42.3988657 C183.379732,44.8328955 182.672626,47.1554328 182.351822,49.3745373 C182.274294,49.4739403 182.21147,49.5599104 182.132606,49.6593134 C181.047219,51.0200597 179.873611,52.4130448 178.609109,53.8342388 C177.345943,55.2567761 176.066737,56.5570746 174.77149,57.7364776 C173.476244,58.9158806 172.211742,59.8857313 170.977983,60.6406567 C169.744224,61.3982687 168.614727,61.7743881 167.593501,61.7743881 C166.20736,61.7743881 165.365249,61.5339403 165.063159,61.0490149 C164.762405,60.5654328 164.551209,59.9300597 164.432244,59.1428955 C164.310606,57.932597 164.671511,56.5718507 165.514958,55.0593134 C166.358405,53.5467761 167.200516,52.1860299 168.043963,50.9757313 C169.428767,49.0387164 170.602375,47.2534925 171.564787,45.6200597 C172.528536,43.9866269 172.920184,42.4149851 172.739732,40.9011045 C172.678244,40.1743881 172.543239,39.3751343 172.33338,38.4966269 C172.120847,37.6194627 171.80539,36.8027463 171.385671,36.0451343 C170.963279,35.290209 170.421923,34.6548358 169.758928,34.1403582 C169.097269,33.6272239 168.253822,33.3693134 167.231259,33.3693134 C166.387812,33.3693134 165.771601,33.4297612 165.381289,33.5506567 C164.988305,33.6728955 164.310606,33.732 163.348194,33.732 C162.683862,33.732 162.203993,33.6567761 161.903239,33.5049851 C161.601149,33.3545373 161.361882,33.2188657 161.180093,33.0966269 C161.841752,32.1294627 162.293551,31.0400597 162.53549,29.8297612 C162.774757,28.620806 162.834908,27.6227463 162.715943,26.8355821 C162.595641,25.6857313 162.187953,24.5667761 161.496887,23.4773731 C160.804485,22.3879701 159.613501,21.842597 157.929279,21.842597 C157.027018,21.842597 156.092676,22.2670746 155.130264,23.1133433 C154.166516,23.9622985 153.293661,24.9751343 152.511702,26.153194 C151.728405,27.3339403 151.096154,28.5590149 150.614948,29.8297612 C150.131068,31.1005075 149.951953,32.1294627 150.072254,32.9152836 C150.192556,33.822 150.373008,34.4130448 150.614948,34.6843881 C150.854214,34.9570746 151.306013,35.3963284 151.967671,36.000806 C151.608104,36.6670746 151.036003,37.7417015 150.252707,39.2233433 C149.46941,40.7049851 148.612596,42.3854328 147.678254,44.2593134 C146.745249,46.1358806 145.768134,48.1172239 144.744234,50.2046866 C144.172134,51.372 143.62944,52.480209 143.102787,53.5534925 C142.339541,54.4145373 141.576294,55.2446866 140.813048,56.0117015 C139.577953,57.2528955 138.388305,58.2805075 137.24544,59.0985672 C136.099903,59.9152836 135.106747,60.3236418 134.264636,60.3236418 C133.782093,60.3236418 133.347671,60.2175224 132.956023,60.0052836 C132.564375,59.7930448 132.232877,59.400806 131.962867,58.8258806 C131.691521,58.2509552 131.465621,57.4181194 131.285169,56.3300597 C131.104717,55.2406567 130.953671,53.7885672 130.83337,51.973791 C131.132787,51.5506567 131.465621,51.0805075 131.826526,50.5673731 C132.18743,50.0528955 132.549671,49.3866269 132.910576,48.5699104 C133.27148,47.753194 133.645752,46.7551343 134.038737,45.5757313 C134.429048,44.3949851 134.836737,42.9590149 135.257792,41.2651343 C135.859299,39.2085672 136.220204,37.2124478 136.341842,35.2740896 C136.462144,33.3384179 136.523631,31.8876716 136.523631,30.9191642 C136.523631,30.373791 136.16139,30.0111045 135.438244,29.8297612 C135.197641,29.7693134 134.911591,29.7236418 134.58143,29.6927463 C134.248596,29.6645373 133.843581,29.6793134 133.361038,29.7384179 C132.156686,29.7988657 131.285169,29.9976716 130.742475,30.3294627 C130.201119,30.662597 129.598274,31.553194 128.936616,33.0052836 C128.574375,33.732 128.138616,34.7300597 127.626666,36.000806 C127.116053,37.2715522 126.633511,38.7088657 126.181712,40.311403 C125.729913,41.9152836 125.338264,43.6400597 125.008104,45.4843881 C124.676606,47.3300597 124.510857,49.221403 124.510857,51.1570746 C124.510857,52.1860299 124.603088,53.1840896 124.780867,54.1512537 C123.576516,56.0278209 122.254536,57.5551343 120.809581,58.7345373 C119.364626,59.9152836 117.858184,60.5049851 116.292928,60.5049851 C113.884224,60.5049851 112.289561,59.8091642 111.507601,58.4161791 C110.724305,57.0258806 110.483702,54.9679701 110.784455,52.2464776 C110.906093,51.0361791 111.237591,49.4322985 111.778948,47.4361791 C112.260154,45.6818507 112.967259,43.4117015 113.901601,40.6297612 C114.833269,37.8464776 116.113812,34.3673731 117.739219,30.1924478 C117.256676,30.0111045 116.730023,29.9197612 116.157923,29.9197612 C115.585822,29.9197612 115.029762,29.9506567 114.487068,30.0111045 C113.824073,30.1333433 113.193159,30.2528955 112.590315,30.373791 C111.023722,30.8587164 109.804666,31.7506567 108.933149,33.0509552 C108.061631,34.352597 107.351852,35.8799104 106.811832,37.6342388 C106.690194,37.9378209 106.464294,38.6927463 106.134134,39.9030448 C105.802636,41.1133433 105.425691,42.580209 105.005973,44.3049851 C104.738636,45.3970746 104.504717,46.5724478 104.285501,47.7867761 C104.129109,47.9761791 103.992767,48.1481194 103.832365,48.3428955 C102.62534,49.7949851 101.316727,51.2779701 99.9025156,52.7905075 C98.4883045,54.3030448 97.0874603,55.6946866 95.703993,56.9640896 C94.3165156,58.2348358 92.9784955,59.2490149 91.6859226,60.0052836 C90.3893397,60.7615522 89.2919226,61.0799104 88.3883246,60.9576716 C87.2427869,60.8985672 86.2817116,60.5345373 85.4997518,59.8682687 C84.8354201,59.2651343 84.2806965,58.2805075 83.8288975,56.9197612 C83.3757618,55.5576716 83.3316513,53.5776716 83.6925558,50.9757313 C85.2578121,47.3448358 86.6733598,43.9275224 87.9365256,40.7197612 C89.2010281,37.5133433 90.2850784,34.6709552 91.1886764,32.1885672 C92.2112392,29.3461791 93.1148372,26.7133433 93.896797,24.2927463 C94.2577015,23.2651343 94.5424151,22.283194 94.7562844,21.3442388 C94.9380734,20.5261791 95.1399126,19.692 95.3457618,18.8497612 C97.4964854,18.2318507 99.3598221,17.6999104 100.911712,17.2579701 C104.312234,16.2867761 106.924114,15.5587164 108.746013,15.0724478 C109.654958,14.7836418 110.498405,14.5069254 111.276355,14.2449851 C111.901923,13.9749851 112.492737,13.6861791 113.05147,13.3839403 C113.608867,13.0790149 113.913631,12.7646866 113.968435,12.4369254 C114.106114,12.2555821 114.128837,12.0205075 114.033933,11.7330448 C113.937691,11.4442388 113.806696,11.1540896 113.635601,10.8599104 C113.443119,10.530806 113.191822,10.1869254 112.883048,9.82558209 C112.575611,9.46692537 112.248124,9.11767164 111.905933,8.78050746 C111.638596,8.49304478 111.351209,8.20826866 111.037088,7.92483582 C110.725641,7.64140299 110.392807,7.40767164 110.039923,7.22229851 C109.592134,7.63334328 109.06147,8.02020896 108.442586,8.38558209 C107.822365,8.75229851 107.198134,9.06797015 106.573903,9.34065672 C105.874817,9.65364179 105.147661,9.95991045 104.392435,10.2581194 C103.280315,10.6181194 101.275289,11.2575224 98.3840432,12.1763284 C97.9268975,12.3173731 97.4189578,12.4758806 96.8829477,12.6397612 C97.4804452,9.57170149 97.810606,7.04229851 97.8707568,5.05423881 C97.9309075,3.05677612 97.810606,1.81826866 97.5085156,1.33334328 C97.2090985,0.969313433 96.7252191,0.742298507 96.0648975,0.652298507 C95.4019025,0.560955224 94.7095005,0.560955224 93.9876915,0.652298507 C93.2645457,0.742298507 92.5868472,0.895432836 91.9559327,1.10632836 C91.3236814,1.31856716 90.9173296,1.57513433 90.7368774,1.87737313 C90.1353698,2.72498507 89.4563347,4.22408955 88.7051186,6.36931343 C87.9512291,8.51856716 87.1839729,11.0439403 86.4020131,13.9467761 C86.2469578,14.4934925 86.0598221,15.2430448 85.8606563,16.0463284 C81.4709879,17.4017015 75.9344452,19.1090149 69.2470181,21.1682687 C68.9101739,21.5148358 68.6882844,21.8681194 68.5800131,22.2267761 C68.470405,22.5854328 68.4089176,22.9185672 68.3915407,23.2248358 C68.3955508,23.5660299 68.4356513,23.8870746 68.5118422,24.1866269 C68.6468472,24.4996119 68.7885357,24.7857313 68.9382442,25.0436418 C69.0665658,25.262597 69.243008,25.4788657 69.4648975,25.6924478 C69.6881236,25.9046866 69.9434302,26.0497612 70.2321538,26.1249851 C75.597601,24.5640896 80.3000533,23.1979701 84.3675809,22.0185672 C83.7099327,24.8622985 83.0736714,27.7678209 82.4735005,30.7821493 C81.7209477,34.5634925 81.0432492,38.1030448 80.4417417,41.3994627 C80.3160935,42.0899104 80.1984653,42.750806 80.0835106,43.4063284 C79.718596,43.8872239 79.1986261,44.5561791 78.4995407,45.4387164 C77.6881739,46.4690149 76.7698724,47.6484179 75.7459729,48.9782687 C74.7207367,50.3094627 73.6233196,51.6863284 72.4497116,53.1075224 C71.2761035,54.5300597 70.1452693,55.8317015 69.0638925,57.0097612 C67.9798422,58.1891642 66.954606,59.1590149 65.9935307,59.9152836 C65.0284452,60.6728955 64.2451487,61.0490149 63.6449779,61.0490149 C62.9218322,61.0490149 62.3644352,60.883791 61.9741236,60.5493134 C61.5811387,60.2175224 61.2950884,59.7782687 61.1173095,59.2328955 C60.9355206,58.6888657 60.8299226,58.0991642 60.7991789,57.463791 C60.7697719,56.8284179 60.7844754,56.2387164 60.8446261,55.6946866 C61.0250784,54.7866269 61.1747869,54.0317015 61.2950884,53.4258806 C61.4167266,52.821403 61.5223246,52.290806 61.6132191,51.8367761 C61.7027769,51.3840896 61.7923347,50.9300597 61.8832291,50.4760299 C61.9741236,50.022 62.0783849,49.5222985 62.2000231,48.9782687 C62.800194,46.1963284 63.2840734,43.9275224 63.6449779,42.1718507 C64.0058824,40.4175224 64.2772291,39.0272239 64.4576814,37.9982687 C64.6381337,36.9693134 64.7276915,36.2587164 64.7276915,35.863791 C64.7276915,35.4715522 64.8025457,34.7542388 64.7878422,34.5661791 C64.7691286,34.4197612 64.7063045,33.6030448 64.6421437,32.9730448 C64.5779829,32.3443881 64.4897618,31.9615522 64.2197518,30.7821493 C63.948405,29.6027463 63.391008,28.710806 62.5488975,28.1049851 C61.5236613,27.4400597 60.2003447,26.9564776 58.5749377,26.6528955 C57.188797,26.532 53.198797,27.0169254 51.0921839,28.1049851 C48.9828975,29.1930448 46.8482141,30.8143881 44.6801136,32.9609552 C42.5133497,35.1088657 40.510998,37.6946866 38.674395,40.7197612 C37.1679528,43.2034925 36.0130583,45.9222985 35.1762945,48.852 C35.136194,48.8949851 35.1014402,48.9352836 35.0613397,48.9782687 C33.2247367,50.9757313 31.2370884,52.8966269 29.1010683,54.7409552 C26.9637116,56.5866269 24.7809075,58.1596119 22.5553296,59.4599104 C20.3257417,60.7615522 18.1883849,61.4117015 16.1432593,61.4117015 C15.1781739,61.4117015 14.2304653,61.2746866 13.2974603,61.0033433 C12.3644553,60.7306567 11.5370482,60.2766269 10.8139025,59.6412537 C10.0920935,59.0058806 9.48924925,58.1757313 9.00804322,57.1467761 C8.5255005,56.1178209 8.25549045,54.8484179 8.1953397,53.3345373 C9.09893769,52.6696119 10.1522442,51.9281194 11.356596,51.1100597 C12.5596111,50.2933433 13.8241136,49.4322985 15.1501035,48.5255821 C16.3531186,47.6779701 17.6323246,46.7403582 18.9877216,45.711403 C20.3431186,44.683791 21.6209879,43.5339403 22.8253397,42.263194 C24.0283548,40.9924478 25.0682945,39.572597 25.9411487,37.9982687 C26.8113296,36.4252836 27.3406563,34.7005075 27.5211085,32.8239403 C27.6427467,31.131403 27.1896111,29.7088657 26.1657116,28.5590149 C25.1418121,27.4105075 23.486998,26.8355821 21.1999327,26.8355821 C18.7912291,26.8355821 16.3972291,27.5918507 14.0192693,29.1043881 C11.6413095,30.6169254 9.50528945,32.5217015 7.60853568,34.8200597 C5.71178191,37.1211045 4.11578191,39.6464776 2.82187236,42.3988657 C1.52662613,45.152597 0.760706533,47.7693134 0.520103518,50.2490149 C0.219349749,53.2754328 0.443912563,55.8464776 1.19646533,57.9621493 C1.94901809,60.0818507 2.95821407,61.8052836 4.22271658,63.1364776 C5.48588241,64.4676716 6.88538995,65.4509552 8.42257588,66.0849851 C9.95575176,66.7203582 11.3846663,67.0387164 12.711993,67.0387164 C15.2383246,67.0387164 17.8435206,66.4328955 20.5208975,65.2239403 C23.2009477,64.0136418 25.8181739,62.4258806 28.3779226,60.4579701 C30.3027467,58.9817015 32.1500432,57.3482687 33.9198121,55.5617015 C33.8783749,56.3596119 33.8690181,57.1252836 33.9345156,57.8264776 C34.1136312,59.7930448 34.5360231,61.3982687 35.1976814,62.6367761 C35.8593397,63.8779701 36.6720432,64.7860299 37.635792,65.3582687 C38.598204,65.933194 39.501802,66.222 40.3452492,66.222 C42.1511085,66.0997612 43.9583045,65.7075224 45.7641638,65.0412537 C47.3280834,64.4381194 48.9828975,63.4843881 50.7299427,62.1840896 C52.4769879,60.883791 54.0716513,59.022 55.516606,56.601403 C55.4551186,58.2348358 55.5620533,59.5969254 55.8320633,60.6849851 C56.1047467,61.7743881 56.3881236,62.6528955 56.6915508,63.3164776 C57.0524553,64.1036418 57.5029176,64.7094627 58.0456111,65.132597 C58.5869678,65.4952836 59.2192191,65.7518507 59.9423648,65.9036418 C60.6641739,66.0540896 61.4314302,66.0997612 62.2441337,66.0406567 C63.0581739,65.9788657 63.8548372,65.8270746 64.6381337,65.5866269 C65.4200935,65.3434925 66.1124955,65.0412537 66.7153397,64.6785672 C67.6189377,64.0740896 68.7470985,63.0303582 70.1011588,61.5473731 C71.4565558,60.0657313 72.8400231,58.4322985 74.2569075,56.6470746 C75.6684452,54.863194 77.0398824,53.0779701 78.3645357,51.2927463 C78.5650382,51.021403 78.7508372,50.770209 78.9406462,50.5136418 C78.6131588,52.8052836 78.4206764,54.4185672 78.3645357,55.3306567 C78.2428975,56.4818507 78.3324553,57.7364776 78.6358824,59.0985672 C78.9366362,60.4579701 79.4619528,61.7152836 80.2158422,62.863791 C80.9670583,64.0136418 82.0056613,64.980806 83.3316513,65.7666269 C84.6549678,66.5524478 86.3111186,66.9473731 88.2987668,66.9473731 C89.6835709,66.9473731 91.3985357,66.1897612 93.444998,64.6785672 C95.4914603,63.1673731 97.5994101,61.2451343 99.7688472,58.9158806 C101.05741,57.5282687 102.299189,56.0627463 103.515571,54.5569254 C103.503541,54.9343881 103.470124,55.3266269 103.470124,55.6946866 C103.470124,56.7236418 103.635872,57.8587164 103.96737,59.0985672 C104.296194,60.3384179 104.869631,61.4882687 105.682335,62.5467761 C106.495038,63.6052836 107.624536,64.4972239 109.06949,65.2239403 C110.514445,65.9493134 112.379119,66.312 114.667521,66.312 C116.955923,66.312 119.033129,65.7222985 120.899139,64.5415522 C122.765149,63.3634925 124.389219,61.6830448 125.776696,59.5055821 C126.438355,61.6239403 127.233681,63.242597 128.16936,64.3615522 C129.102365,65.4805075 130.381571,66.0406567 132.006978,66.0406567 C133.812837,66.0406567 136.006335,65.4751343 138.054134,64.0230448 C140.099259,62.5709552 142.093591,60.8045373 144.110646,58.6257313 C145.551591,57.070209 146.885601,55.5321493 148.124707,53.6811045 L148.138073,53.6730448 C148.154114,53.6461791 148.17149,53.6179701 148.187531,53.5911045 C148.662053,52.8778209 149.123209,52.120209 149.570998,51.2927463 C151.34745,48.7230448 152.837852,46.2876716 154.042204,43.9866269 C154.166516,43.7622985 154.242707,43.5500597 154.310877,43.3418507 C154.798767,42.5291642 155.250566,41.7755821 155.671621,41.0824478 C156.515068,39.6921493 157.055088,38.7854328 157.298365,38.3609552 C157.778234,38.4818507 158.291521,38.663194 158.831541,38.9049851 C159.374234,39.1467761 160.035892,39.2676716 160.817852,39.2676716 C161.361882,39.2676716 161.766897,39.2542388 162.038244,39.2233433 C162.310928,39.1924478 162.520787,39.1776716 162.670495,39.1776716 C162.820204,39.1776716 162.971249,39.1628955 163.122294,39.1306567 C163.270666,39.1011045 163.528646,39.0863284 163.889551,39.0863284 C164.432244,39.0863284 164.822556,39.2985672 165.063159,39.7217015 C165.303762,40.1448358 165.4254,40.6297612 165.4254,41.1724478 C165.4254,42.021403 165.107269,43.0651343 164.476355,44.3049851 C163.844104,45.5448358 163.016696,47.042597 161.992797,48.7969254 C161.571742,49.6445373 161.103903,50.5082687 160.593289,51.3840896 C160.08134,52.2612537 159.600134,53.1384179 159.148335,54.0155821 C158.697872,54.8927463 158.306224,55.7390149 157.97339,56.5570746 C157.641892,57.3724478 157.446737,58.1448358 157.387923,58.8715522 C157.326435,59.7782687 157.432033,60.7615522 157.70338,61.8200597 C157.97339,62.8785672 158.425189,63.8470746 159.05744,64.7242388 C159.691028,65.6000597 160.518435,66.3415522 161.540998,66.9473731 C162.564897,67.5518507 163.858807,67.8554328 165.4254,67.8554328 C166.929169,67.8554328 168.509129,67.401403 170.166616,66.4933433 C171.82143,65.5866269 173.476244,64.422 175.132395,62.9994627 C176.788546,61.5782687 178.368506,60.0052836 179.873611,58.2805075 C180.731762,57.2985672 181.532435,56.3354328 182.302365,55.3817015 C182.436033,56.2991642 182.619159,57.1736418 182.899862,57.9621493 C183.651078,60.0818507 184.660274,61.8052836 185.926114,63.1364776 C187.189279,64.4676716 188.590124,65.4509552 190.123299,66.0849851 C191.660485,66.7203582 193.0894,67.0387164 194.414053,67.0387164 C196.943058,67.0387164 199.545581,66.4328955 202.225631,65.2239403 C204.903008,64.0136418 207.522908,62.4258806 210.082656,60.4579701 C212.641068,58.4927463 215.063139,56.2548358 217.351541,53.7428955 C217.618877,53.4500597 217.870174,53.153194 218.130827,52.8590149 C217.356887,56.1312537 216.528144,59.633194 215.635239,63.4091642 C215.815691,64.0740896 216.087038,64.6033433 216.449279,64.9969254 C216.808847,65.3891642 217.171088,65.7075224 217.531993,65.9493134 C217.953048,66.1897612 218.37544,66.3711045 218.796495,66.4933433 C219.277702,66.5524478 219.729501,66.5833433 220.151892,66.5833433 C220.512797,66.5833433 220.903109,66.5228955 221.324164,66.4033433 C221.745219,66.2811045 222.106124,66.070209 222.409551,65.7666269 C222.410887,65.7639403 222.410887,65.7599104 222.412224,65.7572239 C223.13136,65.2548358 223.842475,64.7081194 224.537551,64.080806 C226.592033,62.2257313 228.49146,60.0563284 230.243852,57.5940896 C230.340093,59.9824478 230.925561,61.9852836 232.013621,63.5905075 C233.369018,65.5866269 235.670787,66.7955821 238.921601,67.2200597 C240.246254,67.401403 241.52546,67.2657313 242.760556,66.8117015 C243.994315,66.3576716 245.153219,65.7075224 246.237269,64.8599104 C247.32132,64.0136418 248.314475,63.0155821 249.216737,61.8657313 C250.121671,60.7172239 250.963782,59.5055821 251.747078,58.2348358 C251.443651,59.4464776 251.158938,60.6728955 250.887591,61.9100597 C250.617581,63.152597 250.331531,64.4072239 250.030777,65.6766269 C249.24748,68.5203582 249.378475,69.4230448 248.476214,72.9921493 C247.990998,74.7639403 247.096757,78.2927463 246.421732,80.982 C246.407028,81.0169254 246.384305,81.0518507 246.370938,81.0867761 C246.068847,81.872597 245.572938,82.5066269 244.881872,82.9928955 C244.18947,83.4764776 243.37543,83.8539403 242.443762,84.1266269 C241.50942,84.3993134 240.470817,84.5645373 239.327953,84.6263284 C237.338968,84.7458806 234.076124,84.7203582 231.335923,84.5094627 C228.595722,84.2972239 225.965129,83.9036418 223.434787,83.3300597 C222.279892,83.0667761 221.206536,82.7511045 220.196003,82.3924478 C218.716294,82.0593134 217.06549,82.0297612 215.674003,83.1366269 C214.806495,83.8190149 213.763882,85.8715522 214.996305,86.4558806 C217.58546,87.4794627 220.548887,88.3069254 223.930696,88.911403 C227.995551,89.6367761 232.585722,90.000806 237.703882,90.000806 C241.556204,90.000806 244.626566,89.5911045 246.914968,88.7743881 C249.202033,87.9576716 250.872887,86.8991642 251.927531,85.5988657 C252.527702,84.8560299 252.932717,84.0379701 253.180003,83.1567761 L253.21743,83.1500597 C253.21743,83.1500597 253.23347,83.0278209 253.264214,82.8115522 C253.348425,82.4381194 253.401892,82.0512537 253.425953,81.6536418 C253.748093,79.3646866 254.389702,75.0003582 254.906998,72.5743881 C255.749109,68.7017015 256.532405,65.2830448 257.255551,62.3184179 C257.97736,58.6888657 258.744616,55.422 259.558656,52.5178209 C260.370023,49.6136418 261.137279,47.0264776 261.860425,44.7576716 C262.582234,42.490209 263.214485,40.5706567 263.757179,38.9963284 C264.298536,37.4233433 264.660777,36.1230448 264.841229,35.0927463 C265.140646,33.0966269 265.096536,31.6445373 264.704887,30.7364776" id="Fill-14" fill="#E54C3B" mask="url(#mask-2)"></path>
                </g>
            </g>
        </g>
    </g>
</svg>