<?xml version="1.0" encoding="utf-8"?>
<!-- Generator: Adobe Illustrator 21.0.2, SVG Export Plug-In . SVG Version: 6.00 Build 0)  -->
<svg version="1.1" id="Layer_1" xmlns="http://www.w3.org/2000/svg" xmlns:xlink="http://www.w3.org/1999/xlink" x="0px" y="0px"
	 viewBox="0 0 65 46" style="enable-background:new 0 0 65 46;" xml:space="preserve">
<style type="text/css">
	.st0{fill:#FFFFFF;}
	.st1{fill:#FF5F00;}
	.st2{fill:#EB001B;}
	.st3{fill:#F79E1B;}
</style>
<g>
	<polygon id="path-7" class="st0" points="56.3,26.7 56.3,26.1 55.1,26.1 55.1,26.7 	"/>
</g>
<g>
	<polygon id="path-5" class="st0" points="32.7,4.3 9.2,4.3 9.2,33.3 32.7,33.3 	"/>
</g>
<g>
	<polygon id="path-3" class="st0" points="55.3,40.9 56.1,40.9 56.1,40.1 55.3,40.1 	"/>
</g>
<title>mastercard-gray</title>
<desc>Created with Sketch.</desc>
<rect class="st0" width="65" height="46"/>
<g>
	<path id="XMLID_1775_" d="M15.3,42.7V40c0-1-0.6-1.7-1.7-1.7c-0.5,0-1.1,0.2-1.5,0.8c-0.3-0.5-0.8-0.8-1.4-0.8
		c-0.5,0-0.9,0.1-1.3,0.6v-0.5H8.5v4.3h0.9v-2.4c0-0.7,0.4-1.1,1.1-1.1c0.6,0,0.9,0.4,0.9,1.1v2.4h0.9v-2.4c0-0.7,0.4-1.1,1.1-1.1
		c0.6,0,0.9,0.4,0.9,1.1v2.4H15.3z M29.3,38.4h-1.5v-1.3h-0.9v1.3H26v0.9h0.9v2c0,1,0.4,1.6,1.5,1.6c0.4,0,0.9-0.1,1.2-0.3l-0.3-0.8
		c-0.3,0.2-0.6,0.2-0.8,0.2c-0.5,0-0.6-0.3-0.6-0.7v-1.9h1.5V38.4z M37.3,38.3c-0.5,0-0.9,0.3-1.1,0.6v-0.5h-0.9v4.3h0.9v-2.4
		c0-0.7,0.3-1.1,0.9-1.1c0.2,0,0.4,0,0.6,0.1l0.3-0.9C37.8,38.3,37.5,38.3,37.3,38.3L37.3,38.3z M25.2,38.8
		c-0.5-0.3-1.1-0.5-1.8-0.5c-1.1,0-1.8,0.5-1.8,1.4c0,0.7,0.5,1.1,1.5,1.3l0.4,0.1c0.5,0.1,0.8,0.2,0.8,0.5c0,0.3-0.3,0.5-1,0.5
		c-0.6,0-1.1-0.2-1.4-0.5l-0.4,0.7c0.5,0.4,1.2,0.6,1.9,0.6c1.2,0,2-0.6,2-1.4c0-0.8-0.6-1.2-1.5-1.3l-0.4-0.1
		c-0.4-0.1-0.7-0.1-0.7-0.4c0-0.3,0.3-0.5,0.8-0.5c0.5,0,1.1,0.2,1.3,0.4L25.2,38.8z M50.3,38.3c-0.5,0-0.9,0.3-1.1,0.6v-0.5h-0.9
		v4.3h0.9v-2.4c0-0.7,0.3-1.1,0.9-1.1c0.2,0,0.4,0,0.6,0.1l0.3-0.9C50.8,38.3,50.5,38.3,50.3,38.3L50.3,38.3z M38.2,40.6
		c0,1.3,0.9,2.3,2.3,2.3c0.6,0,1.1-0.1,1.5-0.5l-0.5-0.8c-0.4,0.3-0.7,0.4-1.1,0.4c-0.7,0-1.3-0.5-1.3-1.4c0-0.8,0.5-1.4,1.3-1.4
		c0.4,0,0.8,0.1,1.1,0.4l0.5-0.8c-0.5-0.4-0.9-0.5-1.5-0.5C39.2,38.3,38.2,39.3,38.2,40.6L38.2,40.6z M47,40.6v-2.2h-0.9v0.5
		c-0.3-0.4-0.7-0.6-1.4-0.6c-1.2,0-2.2,0.9-2.2,2.3c0,1.3,0.9,2.3,2.2,2.3c0.6,0,1.1-0.2,1.4-0.6v0.5H47V40.6z M43.5,40.6
		c0-0.8,0.5-1.4,1.3-1.4c0.8,0,1.3,0.6,1.3,1.4c0,0.8-0.5,1.4-1.3,1.4C44,42,43.5,41.3,43.5,40.6L43.5,40.6z M32.2,38.3
		c-1.3,0-2.1,0.9-2.1,2.3c0,1.4,0.9,2.3,2.2,2.3c0.6,0,1.2-0.2,1.8-0.6l-0.5-0.7c-0.4,0.3-0.8,0.5-1.3,0.5c-0.6,0-1.2-0.3-1.3-1.1
		h3.2c0-0.1,0-0.2,0-0.4C34.3,39.2,33.4,38.3,32.2,38.3L32.2,38.3z M32.2,39.1c0.6,0,1,0.4,1.1,1h-2.2
		C31.2,39.6,31.5,39.1,32.2,39.1L32.2,39.1z M55.7,40.6v-3.9h-0.9v2.3c-0.3-0.4-0.7-0.6-1.4-0.6c-1.2,0-2.2,0.9-2.2,2.3
		c0,1.3,0.9,2.3,2.2,2.3c0.6,0,1.1-0.2,1.4-0.6v0.5h0.9V40.6z M52.2,40.6c0-0.8,0.5-1.4,1.3-1.4c0.8,0,1.3,0.6,1.3,1.4
		c0,0.8-0.5,1.4-1.3,1.4C52.7,42,52.2,41.3,52.2,40.6L52.2,40.6z M20.6,40.6v-2.2h-0.9v0.5c-0.3-0.4-0.7-0.6-1.4-0.6
		c-1.2,0-2.2,0.9-2.2,2.3c0,1.3,0.9,2.3,2.2,2.3c0.6,0,1.1-0.2,1.4-0.6v0.5h0.9V40.6z M17.1,40.6c0-0.8,0.5-1.4,1.3-1.4
		c0.8,0,1.3,0.6,1.3,1.4c0,0.8-0.5,1.4-1.3,1.4C17.6,42,17.1,41.3,17.1,40.6z"/>
</g>
<rect x="24.9" y="5.6" class="st1" width="14.2" height="25.5"/>
<path id="XMLID_330_" class="st2" d="M25.8,18.3c0-5.2,2.4-9.8,6.2-12.8c-2.8-2.2-6.2-3.5-10-3.5c-9,0-16.2,7.3-16.2,16.2
	c0,9,7.3,16.2,16.2,16.2c3.8,0,7.3-1.3,10-3.5C28.2,28.1,25.8,23.5,25.8,18.3z"/>
<path class="st3" d="M58.2,18.3c0,9-7.3,16.2-16.2,16.2c-3.8,0-7.3-1.3-10-3.5c3.8-3,6.2-7.6,6.2-12.8S35.8,8.6,32,5.6
	c2.8-2.2,6.2-3.5,10-3.5C51,2.1,58.2,9.4,58.2,18.3z"/>
</svg>
