<?xml version="1.0" encoding="utf-8"?>
<!-- Generator: Adobe Illustrator 21.0.2, SVG Export Plug-In . SVG Version: 6.00 Build 0)  -->
<svg version="1.1" id="Layer_1" xmlns:sketch="http://www.bohemiancoding.com/sketch/ns"
	 xmlns="http://www.w3.org/2000/svg" xmlns:xlink="http://www.w3.org/1999/xlink" x="0px" y="0px" viewBox="0 0 55 39"
	 style="enable-background:new 0 0 55 39;" xml:space="preserve">
<style type="text/css">
	.st0{fill:#FFFFFF;}
	.st1{fill:#1F4982;}
	.st2{fill:#FBA619;}
</style>
<title>visa</title>
<description>Created with Sketch.</description>
<g id="Slices" transform="translate(-662.000000, -550.000000)" sketch:type="MSLayerGroup">
</g>
<path id="Fill-1" sketch:type="MSShapeGroup" class="st0" d="M32.9,7.2H0V33h20.9H55V7.2H32.9z"/>
<path id="Fill-3" sketch:type="MSShapeGroup" class="st1" d="M38.1,0H0v9.2h32.9H55V0H38.1z"/>
<path id="Fill-4" sketch:type="MSShapeGroup" class="st2" d="M20.8,29.7H0V39h15.6H55v-9.3H20.8z"/>
<path id="Fill-5" sketch:type="MSShapeGroup" class="st1" d="M21.9,25.3l2.1-12.1h3.3l-2.1,12.1H21.9z"/>
<g id="Group-14" transform="translate(7.454052, 12.450087)" sketch:type="MSShapeGroup">
	<path id="Fill-6" class="st1" d="M29.6,1.1c-0.6-0.2-1.7-0.5-3-0.5c-3.3,0-5.5,1.6-5.6,4c0,1.7,1.6,2.7,2.9,3.3
		c1.3,0.6,1.7,1,1.7,1.5c0,0.8-1,1.2-2,1.2c-1.3,0-2-0.2-3.1-0.6l-0.4-0.2l-0.4,2.7c0.8,0.4,2.2,0.6,3.7,0.7c3.5,0,5.7-1.6,5.7-4.1
		c0-1.4-0.9-2.4-2.8-3.3c-1.2-0.6-1.9-0.9-1.9-1.5c0-0.5,0.6-1.1,1.9-1.1c1.1,0,1.9,0.2,2.5,0.5l0.3,0.1L29.6,1.1z"/>
	<path id="Fill-8" class="st1" d="M34,8.6c0.3-0.7,1.3-3.4,1.3-3.4c0,0,0.3-0.7,0.4-1.2l0.2,1c0,0,0.6,2.9,0.8,3.5H34z M38.1,0.8
		h-2.5c-0.8,0-1.4,0.2-1.7,1l-4.9,11.1h3.4c0,0,0.6-1.5,0.7-1.8h4.2c0.1,0.4,0.4,1.8,0.4,1.8h3.1L38.1,0.8z"/>
	<path id="Fill-10" class="st1" d="M11.6,0.8L8.4,9.1L8.1,7.4c-0.6-1.9-2.5-4-4.6-5.1l2.9,10.6h3.5l5.2-12.1H11.6z"/>
	<path id="Fill-12" class="st2" d="M5.4,0.8H0.1l0,0.3c4.1,1,6.9,3.4,8,6.3L6.9,1.8C6.7,1.1,6.1,0.8,5.4,0.8"/>
</g>
</svg>
